<svg id="Layer_1" data-name="Layer 1" xmlns="http://www.w3.org/2000/svg" xmlns:xlink="http://www.w3.org/1999/xlink" viewBox="0 0 1500 1000"><defs><style>.cls-1,.cls-6,.cls-8{fill:none;}.cls-2{fill:#fff;}.cls-3{fill:#003580;}.cls-4{fill:#009543;}.cls-5{clip-path:url(#clip-path);}.cls-6{stroke:#fff;stroke-width:200px;}.cls-6,.cls-8{stroke-miterlimit:40;}.cls-7{fill:#ffce00;}.cls-8{stroke:#003580;stroke-width:10px;}.cls-9{fill:#d21034;}</style><clipPath id="clip-path"><rect class="cls-1" width="1500" height="1000"/></clipPath></defs><rect class="cls-2" y="-3.01" width="1500" height="1000.14"/><polygon class="cls-3" points="0 880.32 0 -2.29 1317.01 -2.29 0 880.32"/><polygon class="cls-4" points="1500 117.31 1500 999.92 182.99 999.92 1500 117.31"/><g class="cls-5"><line class="cls-6" x1="1500" x2="1500" y2="113.66"/></g><path class="cls-7" d="M300,105.68l25.88,70.09L383.33,128l-12.61,73.63L444.33,189,396.6,246.48l70.07,25.87L396.6,298.23l47.73,57.45-73.61-12.61,12.61,73.63L325.88,369,300,439,274.12,369,216.67,416.7l12.61-73.63-73.61,12.61,47.73-57.45-70.07-25.88,70.07-25.87L155.67,189l73.61,12.63L216.67,128l57.45,47.75Z"/><circle class="cls-8" cx="300" cy="272.35" r="91.67"/><polygon class="cls-9" points="129.52 1000 1500 91.38 1500 0 1366.37 0 0 905.89 0 1000 129.52 1000"/></svg>